<?xml version="1.0"?>
<svg xmlns="http://www.w3.org/2000/svg" id="Capa_1" enable-background="new 0 0 511.997 511.997" height="512px" viewBox="0 0 511.997 511.997" width="512px"><g><g><path d="m3.204 151.577c0 7.01 5.547 12.734 12.479 13.053v11.89c0 10.489 8.534 19.023 19.023 19.023h28.71v239.688h-1.729c-10.489 0-19.023 8.534-19.023 19.023v11.859h-13.091c-7.658 0-13.889 6.23-13.889 13.889v18.106c0 7.657 6.23 13.888 13.889 13.888h208.926c4.143 0 7.5-3.357 7.5-7.5s-3.357-7.5-7.5-7.5h-207.815v-15.883h450.629v15.883h-207.815c-4.143 0-7.5 3.357-7.5 7.5s3.357 7.5 7.5 7.5h208.927c7.657 0 13.888-6.23 13.888-13.888v-18.106c0-7.658-6.23-13.889-13.888-13.889h-13.093v-11.859c0-10.489-8.534-19.023-19.023-19.023h-1.729v-106.348c0-4.143-3.357-7.5-7.5-7.5s-7.5 3.357-7.5 7.5v106.348h-33.474v-23.637c0-9.012 0-206.732 0-216.051h33.474v98.34c0 4.143 3.357 7.5 7.5 7.5s7.5-3.357 7.5-7.5v-98.34h28.71c10.489 0 19.023-8.534 19.023-19.023v-11.89c6.933-.319 12.479-6.043 12.479-13.053v-15.922c0-4.908-2.707-9.36-7.065-11.618h-.001l-233.887-121.156c-7.416-3.842-16.266-3.842-23.682 0l-233.887 121.156c-4.358 2.258-7.065 6.71-7.065 11.618v15.922zm447.105 298.654c2.181 0 4.023 1.843 4.023 4.023v11.859h-396.668v-11.859c0-2.181 1.843-4.023 4.023-4.023zm-371.892-15v-239.688h33.474v216.051 23.637zm92.23-208.55v177.413h-43.756v-177.413zm-43.756-15v-16.138h43.756v16.138zm43.756 207.413v16.137h-43.756v-16.137zm15 16.137v-23.637c0-9.012 0-206.732 0-216.051h33.474v216.051 23.637zm92.229-208.55v177.413h-43.756v-177.413zm-43.756-15v-16.138h43.756v16.138zm43.756 207.413v16.137h-43.756v-16.137zm15 16.137v-23.637c0-9.012 0-206.732 0-216.051h33.474v216.051 23.637zm92.23-208.55v177.413h-43.756v-177.413zm-43.756-15v-16.138h43.756v16.138zm43.756 207.413v16.137h-43.756v-16.137zm96.207-242.574c0 2.181-1.843 4.023-4.023 4.023-12.691 0-409.767 0-442.582 0-2.181 0-4.023-1.843-4.023-4.023v-11.859h450.629v11.859zm-463.109-39.7 232.854-120.62c3.094-1.602 6.789-1.602 9.881 0l232.854 120.62v12.841c-4.284 0-470.767 0-475.588 0v-12.841z" data-original="#000000" class="active-path" data-old_color="#000000" fill="#D19A77"/><path d="m255.998 131.075c20.335 0 36.878-16.543 36.878-36.878s-16.543-36.878-36.878-36.878-36.878 16.543-36.878 36.878 16.543 36.878 36.878 36.878zm0-58.756c12.063 0 21.878 9.814 21.878 21.878s-9.814 21.878-21.878 21.878-21.878-9.814-21.878-21.878 9.815-21.878 21.878-21.878z" data-original="#000000" class="active-path" data-old_color="#000000" fill="#D19A77"/></g></g> </svg>
