<?xml version="1.0"?>
<svg xmlns="http://www.w3.org/2000/svg" id="Layer_1" height="512px" viewBox="0 0 128 128" width="512px" data-name="Layer 1"><g><path d="m117 82.354h-3v-37.48l3.557-1.194a1.75 1.75 0 0 0 0-3.318l-53-17.792a1.754 1.754 0 0 0 -1.114 0l-53 17.792a1.75 1.75 0 0 0 0 3.318l17.474 5.866v31.854c0 1.136 0 3.038 11.5 5.08a143.859 143.859 0 0 0 24.583 2 143.859 143.859 0 0 0 24.583-2c11.5-2.042 11.5-3.944 11.5-5.08v-31.854l10.417-3.5v36.3h-3a1.75 1.75 0 0 0 -1.75 1.75v19.667a1.75 1.75 0 0 0 2.9 1.315l3.6-3.154 3.6 3.154a1.75 1.75 0 0 0 2.9-1.315v-19.663a1.75 1.75 0 0 0 -1.75-1.746zm-53-56.279 47.5 15.946-47.5 15.945-47.5-15.945zm32.583 54.679c-2.522 1.388-15.433 4.225-32.583 4.225s-30.061-2.837-32.583-4.225v-30.033l32.026 10.751a1.754 1.754 0 0 0 1.114 0l32.026-10.751zm18.667 19.154-1.85-1.619a1.75 1.75 0 0 0 -2.309 0l-1.846 1.619v-14.054h6z" data-original="#000000" class="active-path" data-old_color="#000000" fill="#D19A77"/></g> </svg>
