<?xml version="1.0"?>
<svg xmlns="http://www.w3.org/2000/svg" height="512px" viewBox="0 0 37 61" width="512px"><g><path id="Shape" d="m30.27 27.2c-.2510414-1.5867081-1.330659-2.9184028-2.8311413-3.4921773-1.5004822-.5737746-3.1931812-.3021953-4.4388587.7121773 3.54-19.31 3.3-17.83 3.3-18.42.0296721-2.58882471-1.9217666-4.77211024-4.49768-5.03204096s-4.9241932 1.48947807-5.41232 4.03204096l-2.47 15.8-3-13.6c-.2294299-1.84045897-1.45877707-3.4027079-3.19367164-4.05850369-1.73489457-.6557958-3.69025982-.29737854-5.0797648.93111778-1.38950497 1.22849632-1.98482715 3.12520603-1.54656356 4.92738591l3.39 18.3c.72 3.84-1.1 5.89-2.8 10.84-1.34070517 3.8742012-.69810373 8.1594562 1.72 11.47l5 6.9c.49497419.7297348.70491436 1.6157535.59 2.49 0 1.1045695.8954305 2 2 2h17c1.1045695 0 2-.8954305 2-2 0-2.18-.41-1.22 3.85-8.48 1.3394026-2.6455023 2.073792-5.5557338 2.15-8.52v-7.8l.27-.42c1.1643827-1.7541061.9860924-4.0754634-.4324995-5.6311859s-3.713696-1.9468544-5.5675005-.9488141zm2.19 1.44c.958983.0170451 1.8313534.5586991 2.2719449 1.4106486.4405916.8519495.3784087 1.8769141-.1619449 2.6693514l-4.57 7.28c-.5163086.9414274-1.5564809 1.4706042-2.62142 1.3336204-1.0649392-.1369839-1.9373297-.9121751-2.19858-1.9536204-.1631286-.716809-.0335511-1.4690784.36-2.09 5.58-9 3.94-6.3 4.59-7.34.5059497-.801762 1.3820747-1.2943473 2.33-1.31zm-4.1-.53c-.0478135.8159751-.3444567 1.5977171-.85 2.24 0 0-4.51 7.18-4.51 7.23-1.64 2.62-5.32 1.51-4.93-1.58 3.2863395-.0383432 5.9302237-2.7134368 5.93-6v-1c-.0023138-.6617111-.3317712-1.2794436-.88-1.65l.27-.43c1.54-2.46 5-1.66 4.97 1.19zm-12.08 9.89h-1.28c-.5522847 0-1-.4477153-1-1s.4477153-1 1-1h1.05c-.0658769.6754324.012521 1.3571535.23 2zm-13.22-29.34c-.19113711-1.06107881.19832373-2.1435265 1.02167639-2.83959548.82335266-.69606899 1.95551027-.90000984 2.97000003-.53500001 1.01448975.36500984 1.7571865 1.24351667 1.94832358 2.30459549l3.57 16.24c.171736.6895427.8010092 1.166038 1.5112858 1.1443685s1.3093323-.5356392 1.4387142-1.2343685l2.84-18.36c.1634065-.77569065.6271828-1.45517696 1.29-1.89.9221555-.60728984 2.1033659-.65894094 3.0750106-.13446178.9716446.52447915 1.5766487 1.54030195 1.5749894 2.64446178 0 .34.22-1-3.77 21h-6.68c-1.5074276-.0036208-2.9749289.4843761-4.18 1.39-1.15465265.8550688-2.24737925 1.7907368-3.27 2.8.28749741-1.3802884.30447779-2.8032442.05-4.19zm30.94 33.34c-.074902 2.608835-.7127996 5.1706588-1.87 7.51-4.39 7.49-4.13 6.77-4.13 9.49h-17c.1200106-1.2945335-.2354672-2.588473-1-3.64l-5-6.9c-1.70734419-2.3445994-2.3762458-5.2877665-1.85-8.14.85-4.08 4.37-7.84 7.71-10.32.8654809-.6491106 1.9181489-1 3-1h8.14v1c0 2.209139-1.790861 4-4 4h-3c-1.6568542 0-3 1.3431458-3 3s1.3431458 3 3 3h1.41c1.5919184-.0015675 3.0332331.9409816 3.67 2.4.1300875.346215.4406428.5923594.8074159.6399532.366773.0475938.7298662-.1111355.9440096-.4126818.2141434-.3015464.2443654-.6966644.0785745-1.0272714-.1040082-.2347784-.2243014-.4619989-.36-.68.6268018-.150121 1.2179996-.4219361 1.74-.8.5252303 1.7555962 2.0423706 3.0319971 3.8619416 3.2491297 1.8195709.2171326 3.5944628-.6664244 4.5180584-2.2491297l2.33-3.74z" data-original="#000000" class="active-path" data-old_color="#000000" fill="#D19A77"/></g> </svg>
